<?xml version="1.0" standalone="no"?><!DOCTYPE svg PUBLIC "-//W3C//DTD SVG 1.1//EN" "http://www.w3.org/Graphics/SVG/1.1/DTD/svg11.dtd"><svg t="1734056722915" class="icon" viewBox="0 0 1024 1024" version="1.1" xmlns="http://www.w3.org/2000/svg" p-id="5209" xmlns:xlink="http://www.w3.org/1999/xlink" width="200" height="200"><path d="M512 512m-483.555556 0a483.555556 483.555556 0 1 0 967.111112 0 483.555556 483.555556 0 1 0-967.111112 0Z" fill="#073349" p-id="5210"></path><path d="M673.336889 795.079111a11.377778 11.377778 0 1 1-11.377778 11.377778 11.377778 11.377778 0 0 1 11.377778-11.377778" fill="#FFD400" p-id="5211"></path><path d="M279.779556 806.343111m-11.377778 0a11.377778 11.377778 0 1 0 22.755555 0 11.377778 11.377778 0 1 0-22.755555 0Z" fill="#FFD400" p-id="5212"></path><path d="M817.720889 738.417778m-11.377778 0a11.377778 11.377778 0 1 0 22.755556 0 11.377778 11.377778 0 1 0-22.755556 0Z" fill="#FFD400" p-id="5213"></path><path d="M206.279111 670.492444m-11.377778 0a11.377778 11.377778 0 1 0 22.755556 0 11.377778 11.377778 0 1 0-22.755556 0Z" fill="#FFD400" p-id="5214"></path><path d="M240.298667 217.656889m-11.377778 0a11.377778 11.377778 0 1 0 22.755555 0 11.377778 11.377778 0 1 0-22.755555 0Z" fill="#FFD400" p-id="5215"></path><path d="M844.686222 366.250667m-11.377778 0a11.377778 11.377778 0 1 0 22.755556 0 11.377778 11.377778 0 1 0-22.755556 0Z" fill="#FFD400" p-id="5216"></path><path d="M517.203571 511.956295m-196.293778 150.132219a247.125333 247.125333 0 1 0 392.587556-300.264437 247.125333 247.125333 0 1 0-392.587556 300.264437Z" fill="#FFB600" p-id="5217"></path><path d="M669.013333 709.176889A243.029333 243.029333 0 0 1 334.506667 671.288889 243.143111 243.143111 0 0 0 682.666667 336.668444c-2.048-2.616889-4.096-5.233778-6.371556-7.850666a243.029333 243.029333 0 0 1-7.395555 380.245333z" fill="#F29B00" p-id="5218"></path><path d="M741.603556 408.917333a246.215111 246.215111 0 0 0-23.438223-40.391111 2284.430222 2284.430222 0 0 1-411.648 14.791111 245.646222 245.646222 0 0 0-20.48 41.870223q111.616 6.940444 223.118223 3.185777a2329.144889 2329.144889 0 0 0 232.448-19.456zM764.017778 518.940444a247.580444 247.580444 0 0 0-2.616889-43.008 2284.657778 2284.657778 0 0 1-490.496 17.635556 248.035556 248.035556 0 0 0 0 43.121778 2329.258667 2329.258667 0 0 0 241.664 4.437333 2329.144889 2329.144889 0 0 0 251.448889-22.186667zM730.225778 637.155556A245.873778 245.873778 0 0 0 750.933333 590.734222a2284.885333 2284.885333 0 0 1-461.937777 16.725334 246.101333 246.101333 0 0 0 24.348444 44.373333q101.603556 5.461333 203.093333 2.161778 107.406222-3.640889 213.788445-16.839111z" fill="#FFA300" p-id="5219"></path><path d="M367.047111 315.733333a247.125333 247.125333 0 1 1 300.259556 392.533334" fill="#EB9500" p-id="5220"></path><path d="M290.133333 613.489778c-47.559111 1.137778-63.488-7.964444-65.194666-13.767111s9.329778-28.330667 67.470222-61.895111a1046.755556 1046.755556 0 0 1 201.955555-84.536889c175.217778-54.954667 297.187556-56.888889 304.810667-34.133334 1.706667 5.347556-5.233778 20.821333-40.618667 45.511111 1.479111 7.395556 2.616889 14.677333 3.413334 22.072889a10.467556 10.467556 0 0 0 4.778666-1.592889c41.984-27.989333 59.392-51.541333 52.906667-72.021333-17.749333-56.888889-208.099556-19.228444-331.662222 19.569778a1068.145778 1068.145778 0 0 0-206.279111 86.357333c-58.709333 34.133333-84.650667 63.146667-77.141334 86.926222a28.216889 28.216889 0 0 0 1.365334 3.527112c8.760889 18.659556 37.774222 26.965333 88.632889 25.144888a10.467556 10.467556 0 0 0 5.347555-1.820444q-5.347556-9.329778-9.784889-19.342222z" fill="#FF7F00" p-id="5221"></path></svg>